<svg width="34" height="34" viewBox="0 0 34 34" fill="none" xmlns="http://www.w3.org/2000/svg">
<path d="M26.6405 18.7V30.6H3.33007V6.8H11.6885C11.7718 5.593 12.0548 4.454 12.4878 3.4H3.33007C1.49853 3.4 0 4.93 0 6.8V30.6C0 32.47 1.49853 34 3.33007 34H26.6405C28.4721 34 29.9706 32.47 29.9706 30.6V22.1L26.6405 18.7ZM24.143 27.2H5.82762L10.4065 21.199L13.6699 25.211L18.2488 19.193L24.143 27.2ZM28.8051 11.713C29.5377 10.523 29.9706 9.146 29.9706 7.65C29.9706 3.417 26.6239 0 22.478 0C18.332 0 14.9853 3.417 14.9853 7.65C14.9853 11.883 18.332 15.3 22.4613 15.3C23.9265 15.3 25.2919 14.858 26.4407 14.11L31.6357 19.414L34 17L28.8051 11.713ZM22.478 11.9C20.1802 11.9 18.3154 9.996 18.3154 7.65C18.3154 5.304 20.1802 3.4 22.478 3.4C24.7757 3.4 26.6405 5.304 26.6405 7.65C26.6405 9.996 24.7757 11.9 22.478 11.9Z" fill="#00B3FF"/>
</svg>
