<svg width="30" height="34" viewBox="0 0 30 34" fill="none" xmlns="http://www.w3.org/2000/svg">
<path d="M21.4408 21.3836H20.0858L19.6055 20.8588C21.2864 18.6427 22.2985 15.7656 22.2985 12.6358C22.2985 5.65695 17.307 0 11.1492 0C4.99142 0 0 5.65695 0 12.6358C0 19.6146 4.99142 25.2716 11.1492 25.2716C13.9108 25.2716 16.4494 24.1246 18.4048 22.2196L18.8679 22.7639V24.2996L27.4443 34L30 31.1035L21.4408 21.3836ZM11.1492 21.3836C6.87822 21.3836 3.43053 17.4763 3.43053 12.6358C3.43053 7.79531 6.87822 3.88794 11.1492 3.88794C15.4202 3.88794 18.8679 7.79531 18.8679 12.6358C18.8679 17.4763 15.4202 21.3836 11.1492 21.3836Z" fill="black"/>
</svg>
